<svg width="1296" height="100" viewBox="0 0 1296 100" fill="none" xmlns="http://www.w3.org/2000/svg">
<rect x="0.5" y="0.5" width="195" height="99" rx="7.5" stroke="white" stroke-opacity="0.15"/>
<path d="M41.9414 62.8251H67.5914V37.175H41.9414V62.8251ZM62.6544 47.532H57.2344V42.112H62.6544V47.532ZM46.8774 42.112H52.3004V52.468H62.6544V57.8881H46.8774V42.112ZM84.2944 37.175C81.7578 37.175 79.2782 37.9272 77.1692 39.3365C75.0601 40.7457 73.4163 42.7487 72.4456 45.0921C71.4749 47.4356 71.221 50.0142 71.7158 52.502C72.2107 54.9898 73.4321 57.275 75.2257 59.0686C77.0193 60.8623 79.3045 62.0837 81.7923 62.5786C84.2802 63.0735 86.8588 62.8195 89.2023 61.8489C91.5458 60.8782 93.5487 59.2344 94.958 57.1252C96.3672 55.0161 97.1194 52.5365 97.1194 50C97.1154 46.5998 95.7629 43.3401 93.3586 40.9358C90.9543 38.5315 87.6946 37.179 84.2944 37.175ZM84.2944 57.8881C82.7343 57.8881 81.2092 57.4254 79.912 56.5586C78.6149 55.6919 77.6038 54.46 77.0068 53.0186C76.4098 51.5773 76.2536 49.9913 76.5579 48.4611C76.8623 46.931 77.6136 45.5255 78.7167 44.4224C79.8199 43.3192 81.2254 42.568 82.7555 42.2636C84.2856 41.9593 85.8716 42.1155 87.313 42.7125C88.7543 43.3095 89.9863 44.3205 90.853 45.6177C91.7198 46.9148 92.1824 48.4399 92.1824 50C92.1792 52.0911 91.3471 54.0956 89.8685 55.5742C88.3899 57.0528 86.3854 57.8848 84.2944 57.8881ZM143.013 37.175C140.476 37.1749 137.997 37.9269 135.888 39.336C133.779 40.7451 132.135 42.748 131.164 45.0914C130.193 47.4348 129.939 50.0136 130.434 52.5014C130.928 54.9893 132.15 57.2747 133.943 59.0683C135.737 60.862 138.022 62.0837 140.51 62.5786C142.997 63.0735 145.576 62.8195 147.92 61.8489C150.263 60.8783 152.266 59.2344 153.675 57.1253C155.085 55.0162 155.837 52.5366 155.837 50C155.833 46.6 154.481 43.3404 152.077 40.9361C149.673 38.5319 146.413 37.1793 143.013 37.175ZM143.013 57.8881C141.453 57.8883 139.928 57.4257 138.631 56.5591C137.334 55.6925 136.322 54.4606 135.725 53.0193C135.128 51.578 134.972 49.9919 135.276 48.4617C135.58 46.9316 136.331 45.526 137.434 44.4227C138.538 43.3195 139.943 42.5681 141.473 42.2637C143.003 41.9592 144.589 42.1154 146.03 42.7124C147.472 43.3094 148.704 44.3204 149.571 45.6176C150.437 46.9148 150.9 48.4399 150.9 50C150.897 52.0909 150.065 54.0952 148.586 55.5738C147.108 57.0524 145.104 57.8846 143.013 57.8881ZM113.653 37.175C111.117 37.175 108.637 37.9272 106.528 39.3365C104.419 40.7457 102.775 42.7487 101.805 45.0921C100.834 47.4356 100.58 50.0142 101.075 52.502C101.57 54.9898 102.791 57.275 104.585 59.0686C106.378 60.8623 108.664 62.0837 111.151 62.5786C113.639 63.0735 116.218 62.8195 118.561 61.8489C120.905 60.8782 122.908 59.2344 124.317 57.1252C125.726 55.0161 126.478 52.5365 126.478 50C126.474 46.5998 125.122 43.3401 122.718 40.9358C120.313 38.5315 117.054 37.179 113.653 37.175ZM113.653 57.8881C112.2 57.8888 110.774 57.4879 109.534 56.7295C108.294 55.9712 107.288 54.8852 106.626 53.591C105.965 52.2968 105.673 50.8448 105.785 49.3956C105.896 47.9463 106.406 46.556 107.257 45.3781C108.109 44.2003 109.27 43.2807 110.611 42.7208C111.952 42.1608 113.422 41.9825 114.859 42.2053C116.295 42.4281 117.642 43.0435 118.751 43.9835C119.859 44.9234 120.687 46.1515 121.141 47.532H113.653V52.468H121.141C120.621 54.0433 119.617 55.4148 118.273 56.3876C116.929 57.3605 115.313 57.8853 113.653 57.8881Z" fill="white" fill-opacity="0.7"/>
<rect x="220.5" y="0.5" width="195" height="99" rx="7.5" stroke="white" stroke-opacity="0.15"/>
<path d="M270.419 48.371C270.04 48.7523 269.75 49.2125 269.569 49.7187C269.388 50.225 269.321 50.7649 269.373 51.3L269.355 51.282C269.408 51.9119 269.323 52.5457 269.106 53.1394C268.889 53.733 268.545 54.2721 268.098 54.7191C267.651 55.166 267.112 55.5101 266.518 55.7271C265.925 55.9442 265.291 56.0292 264.661 55.976L264.679 55.994C263.926 55.9239 263.169 56.0878 262.512 56.4635C261.855 56.8392 261.33 57.4083 261.009 58.0933C260.687 58.7783 260.585 59.5457 260.715 60.2911C260.846 61.0364 261.203 61.7233 261.739 62.2581C262.274 62.7929 262.961 63.1496 263.707 63.2795C264.452 63.4095 265.219 63.3063 265.904 62.9842C266.589 62.662 267.157 62.1366 267.532 61.4794C267.908 60.8222 268.071 60.0654 268 59.312L268.019 59.33C267.966 58.7002 268.051 58.0663 268.268 57.4726C268.485 56.879 268.829 56.3399 269.276 55.8929C269.723 55.446 270.262 55.1019 270.856 54.8849C271.449 54.6678 272.083 54.5828 272.713 54.636L272.694 54.618C273.309 54.6733 273.929 54.5724 274.495 54.3246C275.061 54.0768 275.555 53.6901 275.932 53.2004C276.309 52.7107 276.556 52.1337 276.651 51.5231C276.745 50.9124 276.684 50.2878 276.473 49.707C276.262 49.1263 275.907 48.6083 275.442 48.201C274.978 47.7937 274.418 47.5103 273.814 47.3771C273.211 47.2439 272.584 47.2651 271.991 47.4388C271.398 47.6126 270.858 47.9332 270.422 48.371H270.419Z" fill="white" fill-opacity="0.7"/>
<path d="M263.042 53.636L263.023 53.618C263.558 53.6719 264.099 53.6062 264.606 53.4256C265.113 53.245 265.573 52.9541 265.954 52.5738C266.334 52.1935 266.626 51.7333 266.807 51.2266C266.988 50.7199 267.054 50.1794 267 49.644L267.019 49.662C266.966 49.0321 267.051 48.3983 267.268 47.8046C267.485 47.211 267.829 46.6719 268.276 46.2249C268.723 45.778 269.262 45.4339 269.856 45.2169C270.449 44.9998 271.083 44.9148 271.713 44.968L271.694 44.95C272.448 45.0208 273.205 44.8574 273.862 44.4821C274.519 44.1068 275.044 43.538 275.366 42.8531C275.688 42.1682 275.791 41.4007 275.661 40.6552C275.531 39.9097 275.174 39.2225 274.639 38.6874C274.104 38.1522 273.416 37.7952 272.671 37.665C271.925 37.5347 271.158 37.6377 270.473 37.9597C269.788 38.2817 269.219 38.8071 268.844 39.4643C268.469 40.1215 268.305 40.8785 268.376 41.632L268.358 41.613C268.411 42.2429 268.327 42.8768 268.11 43.4705C267.893 44.0643 267.549 44.6035 267.102 45.0505C266.655 45.4974 266.115 45.8415 265.522 46.0585C264.928 46.2755 264.294 46.3603 263.664 46.307L263.682 46.326C263.147 46.2721 262.606 46.3378 262.099 46.5184C261.593 46.6989 261.132 46.9899 260.752 47.3702C260.371 47.7505 260.08 48.2107 259.899 48.7174C259.718 49.2241 259.652 49.7646 259.705 50.3L259.687 50.282C259.74 50.9118 259.655 51.5456 259.438 52.1392C259.221 52.7327 258.877 53.2718 258.43 53.7187C257.983 54.1656 257.444 54.5096 256.85 54.7268C256.257 54.9439 255.623 55.029 254.993 54.976L255.011 54.994C254.258 54.9232 253.501 55.0866 252.843 55.4619C252.186 55.8372 251.661 56.406 251.339 57.0909C251.017 57.7758 250.914 58.5433 251.044 59.2888C251.174 60.0343 251.531 60.7215 252.067 61.2566C252.602 61.7918 253.289 62.1488 254.034 62.279C254.78 62.4092 255.547 62.3063 256.232 61.9843C256.917 61.6623 257.486 61.1369 257.861 60.4797C258.237 59.8224 258.4 59.0655 258.329 58.312L258.348 58.33C258.295 57.7001 258.38 57.0663 258.597 56.4726C258.814 55.879 259.158 55.3399 259.605 54.8929C260.052 54.446 260.591 54.1019 261.185 53.8849C261.778 53.6678 262.412 53.5828 263.042 53.636Z" fill="white" fill-opacity="0.7"/>
<path d="M256.34 51.6289C256.719 51.2477 257.009 50.7875 257.19 50.2812C257.371 49.7749 257.437 49.2349 257.385 48.6999L257.404 48.7179C257.351 48.0879 257.436 47.4538 257.653 46.86C257.87 46.2662 258.215 45.727 258.662 45.28C259.109 44.8331 259.648 44.4891 260.242 44.2721C260.836 44.0552 261.47 43.9705 262.1 44.0239L262.081 44.0059C262.834 44.0765 263.591 43.913 264.248 43.5378C264.905 43.1625 265.43 42.5938 265.752 41.9092C266.074 41.2245 266.177 40.4573 266.046 39.712C265.916 38.9668 265.559 38.2799 265.024 37.7449C264.489 37.21 263.802 36.8531 263.057 36.7229C262.312 36.5926 261.545 36.6954 260.86 37.0173C260.175 37.3391 259.607 37.8643 259.231 38.5212C258.856 39.1781 258.693 39.9347 258.763 40.6879L258.745 40.6699C258.798 41.2998 258.713 41.9337 258.496 42.5273C258.279 43.1209 257.935 43.66 257.488 44.107C257.041 44.554 256.502 44.898 255.909 45.115C255.315 45.3321 254.681 45.4171 254.051 45.3639L254.069 45.3819C253.454 45.3267 252.834 45.4278 252.268 45.6757C251.702 45.9236 251.208 46.3104 250.831 46.8002C250.455 47.2899 250.208 47.8669 250.113 48.4775C250.019 49.0882 250.08 49.7128 250.292 50.2934C250.503 50.8741 250.857 51.392 251.322 51.7992C251.787 52.2065 252.347 52.4898 252.95 52.623C253.553 52.7561 254.181 52.7348 254.774 52.5611C255.367 52.3873 255.906 52.0667 256.342 51.6289H256.34Z" fill="white" fill-opacity="0.7"/>
<path d="M287.317 41.655H290.287V56.108H287.317V41.655Z" fill="white" fill-opacity="0.7"/>
<path d="M291.969 51.1591C291.965 50.1205 292.269 49.1039 292.843 48.2383C293.417 47.3727 294.235 46.6969 295.193 46.2966C296.152 45.8962 297.207 45.7893 298.227 45.9894C299.246 46.1895 300.183 46.6875 300.919 47.4205C301.654 48.1534 302.156 49.0883 302.36 50.1067C302.565 51.1251 302.462 52.1812 302.065 53.1412C301.669 54.1011 300.996 54.9219 300.133 55.4993C299.27 56.0768 298.255 56.3851 297.216 56.3851C296.526 56.393 295.842 56.2633 295.204 56.0037C294.565 55.7441 293.984 55.3598 293.496 54.8733C293.007 54.3867 292.62 53.8076 292.358 53.1699C292.096 52.5322 291.964 51.8486 291.969 51.1591ZM299.493 51.1591C299.48 50.7114 299.336 50.2773 299.079 49.911C298.821 49.5448 298.461 49.2626 298.044 49.0999C297.626 48.9371 297.17 48.9009 296.733 48.9959C296.295 49.0909 295.895 49.3127 295.583 49.6338C295.271 49.9548 295.06 50.3608 294.977 50.801C294.894 51.2411 294.943 51.6959 295.117 52.1085C295.292 52.5211 295.584 52.8731 295.957 53.1206C296.33 53.3681 296.768 53.5001 297.216 53.5001C297.523 53.5083 297.828 53.4528 298.112 53.3372C298.396 53.2216 298.653 53.0484 298.867 52.8285C299.081 52.6085 299.247 52.3466 299.355 52.0593C299.463 51.772 299.51 51.4655 299.493 51.1591Z" fill="white" fill-opacity="0.7"/>
<path d="M314.3 46.2091V55.6091C314.3 58.9351 311.706 60.3411 309.073 60.3411C308.146 60.4105 307.218 60.2232 306.39 59.7999C305.562 59.3765 304.867 58.7334 304.381 57.9411L306.915 56.4761C307.119 56.8891 307.445 57.2298 307.848 57.4527C308.252 57.6755 308.714 57.7699 309.172 57.7231C309.465 57.7637 309.763 57.7379 310.045 57.6476C310.327 57.5573 310.584 57.4048 310.799 57.2015C311.014 56.9981 311.18 56.7491 311.286 56.4727C311.391 56.1964 311.433 55.8999 311.409 55.6051V54.7001C311.061 55.1256 310.619 55.4637 310.116 55.6872C309.614 55.9107 309.067 56.0134 308.518 55.9871C307.212 55.9459 305.973 55.3981 305.063 54.4595C304.154 53.521 303.646 52.2654 303.646 50.9586C303.646 49.6518 304.154 48.3962 305.063 47.4577C305.973 46.5191 307.212 45.9713 308.518 45.9301C309.067 45.9038 309.614 46.0065 310.116 46.23C310.619 46.4535 311.061 46.7916 311.409 47.2171V46.2071L314.3 46.2091ZM311.41 50.9601C311.43 50.4815 311.306 50.0078 311.055 49.6001C310.803 49.1923 310.435 48.8692 309.999 48.6723C309.562 48.4753 309.076 48.4136 308.604 48.495C308.132 48.5764 307.695 48.7972 307.35 49.1291C307.004 49.4609 306.766 49.8885 306.665 50.3569C306.565 50.8253 306.607 51.3131 306.786 51.7574C306.965 52.2017 307.273 52.5823 307.67 52.8501C308.068 53.1179 308.536 53.2607 309.015 53.2601C309.327 53.2819 309.64 53.2381 309.934 53.1315C310.228 53.0249 310.497 52.8578 310.722 52.6412C310.948 52.4245 311.126 52.163 311.244 51.8734C311.363 51.5839 311.419 51.2728 311.41 50.9601Z" fill="white" fill-opacity="0.7"/>
<path d="M315.982 51.1591C315.977 50.1205 316.282 49.1039 316.856 48.2383C317.43 47.3727 318.248 46.6969 319.206 46.2966C320.164 45.8962 321.22 45.7893 322.239 45.9894C323.258 46.1895 324.195 46.6875 324.931 47.4205C325.667 48.1534 326.169 49.0883 326.373 50.1067C326.577 51.1251 326.475 52.1812 326.078 53.1412C325.682 54.1011 325.009 54.9219 324.146 55.4993C323.282 56.0768 322.267 56.3851 321.229 56.3851C320.539 56.393 319.855 56.2633 319.216 56.0037C318.577 55.7441 317.997 55.3598 317.508 54.8733C317.02 54.3867 316.633 53.8076 316.371 53.1699C316.109 52.5322 315.976 51.8486 315.982 51.1591ZM323.506 51.1591C323.493 50.7114 323.349 50.2773 323.091 49.911C322.834 49.5448 322.474 49.2626 322.056 49.0999C321.639 48.9371 321.183 48.9009 320.745 48.9959C320.308 49.0909 319.908 49.3127 319.595 49.6338C319.283 49.9548 319.072 50.3608 318.99 50.801C318.907 51.2411 318.956 51.6959 319.13 52.1085C319.304 52.5211 319.596 52.8731 319.969 53.1206C320.343 53.3681 320.781 53.5001 321.229 53.5001C321.535 53.5083 321.84 53.4528 322.125 53.3372C322.409 53.2216 322.666 53.0484 322.88 52.8285C323.094 52.6085 323.26 52.3466 323.368 52.0593C323.475 51.772 323.522 51.4655 323.506 51.1591Z" fill="white" fill-opacity="0.7"/>
<path d="M327.861 43.5559C327.861 43.2035 327.966 42.8589 328.162 42.5659C328.357 42.2729 328.636 42.0444 328.961 41.9096C329.287 41.7747 329.645 41.7394 329.991 41.8082C330.337 41.8769 330.654 42.0466 330.903 42.2959C331.153 42.5451 331.322 42.8626 331.391 43.2083C331.46 43.5539 331.425 43.9122 331.29 44.2379C331.155 44.5635 330.926 44.8418 330.633 45.0376C330.34 45.2334 329.996 45.3379 329.643 45.3379C329.172 45.3332 328.722 45.144 328.388 44.8108C328.055 44.4776 327.866 44.0271 327.861 43.5559ZM328.161 46.2089H331.132V56.1089H328.157L328.161 46.2089Z" fill="white" fill-opacity="0.7"/>
<path d="M343.956 51.159C343.99 51.8133 343.895 52.4679 343.675 53.0852C343.456 53.7025 343.116 54.2703 342.676 54.756C342.237 55.2416 341.705 55.6356 341.113 55.9152C340.52 56.1947 339.878 56.3544 339.224 56.385C338.673 56.415 338.123 56.3222 337.613 56.1133C337.103 55.9043 336.646 55.5845 336.275 55.177V60.068H333.305V46.209H336.275V47.139C336.646 46.7318 337.103 46.4122 337.613 46.2035C338.123 45.9947 338.673 45.902 339.224 45.932C339.878 45.9625 340.52 46.1221 341.113 46.4017C341.706 46.6813 342.237 47.0753 342.677 47.5611C343.117 48.0469 343.456 48.6149 343.676 49.2324C343.895 49.8498 343.99 50.5046 343.956 51.159ZM340.986 51.159C340.974 50.6957 340.826 50.2461 340.56 49.8664C340.294 49.4868 339.922 49.194 339.491 49.0248C339.059 48.8555 338.588 48.8172 338.135 48.9148C337.681 49.0123 337.267 49.2413 336.944 49.5731C336.62 49.905 336.402 50.3248 336.315 50.7803C336.229 51.2357 336.279 51.7063 336.46 52.1334C336.64 52.5605 336.942 52.9249 337.328 53.1812C337.714 53.4374 338.167 53.5741 338.631 53.574C338.949 53.5882 339.266 53.5349 339.563 53.4177C339.859 53.3006 340.127 53.1221 340.349 52.8941C340.572 52.666 340.743 52.3936 340.853 52.0946C340.963 51.7956 341.008 51.4767 340.986 51.159Z" fill="white" fill-opacity="0.7"/>
<path d="M353.121 53.1381C353.121 55.4151 351.142 56.3851 349.004 56.3851C348.14 56.4633 347.273 56.2807 346.514 55.8606C345.755 55.4406 345.14 54.8026 344.747 54.0291L347.32 52.5641C347.424 52.9216 347.648 53.2327 347.953 53.4452C348.259 53.6578 348.629 53.7591 349 53.7321C349.712 53.7321 350.069 53.5141 350.069 53.1191C350.069 52.0291 345.198 52.6041 345.198 49.1791C345.198 47.0201 347.02 45.9321 349.079 45.9321C349.853 45.9076 350.619 46.0912 351.298 46.4637C351.977 46.8363 352.544 47.3841 352.939 48.0501L350.405 49.4161C350.294 49.1568 350.109 48.9359 349.873 48.781C349.637 48.6261 349.361 48.5441 349.079 48.5451C348.564 48.5451 348.247 48.7451 348.247 49.0991C348.251 50.2281 353.121 49.4751 353.121 53.1381Z" fill="white" fill-opacity="0.7"/>
<path d="M363.97 46.209V56.109H361V55.178C360.657 55.5888 360.222 55.9125 359.73 56.1225C359.238 56.3325 358.704 56.4228 358.17 56.386C356.17 56.386 354.47 54.961 354.47 52.286V46.209H357.44V51.851C357.415 52.0868 357.442 52.3252 357.519 52.5495C357.595 52.7739 357.72 52.9789 357.884 53.1502C358.048 53.3215 358.247 53.455 358.468 53.5415C358.688 53.628 358.925 53.6654 359.162 53.651C360.251 53.651 361.003 53.018 361.003 51.612V46.212L363.97 46.209Z" fill="white" fill-opacity="0.7"/>
<path d="M381 50.03V56.108H378.03V50.287C378.03 49.297 377.555 48.664 376.605 48.664C375.615 48.664 375.06 49.357 375.06 50.525V56.108H372.091V50.287C372.091 49.297 371.616 48.664 370.665 48.664C369.675 48.664 369.121 49.357 369.121 50.525V56.108H366.151V46.208H369.121V47.118C369.429 46.7143 369.833 46.3941 370.296 46.1868C370.76 45.9794 371.268 45.8915 371.774 45.931C372.282 45.9061 372.788 46.0134 373.243 46.2423C373.697 46.4711 374.084 46.8139 374.367 47.237C374.696 46.7943 375.132 46.4423 375.634 46.2139C376.136 45.9855 376.688 45.8882 377.238 45.931C379.511 45.932 381 47.555 381 50.03Z" fill="white" fill-opacity="0.7"/>
<path d="M383.512 46.148C384.729 46.148 385.716 45.1612 385.716 43.944C385.716 42.7268 384.729 41.74 383.512 41.74C382.295 41.74 381.308 42.7268 381.308 43.944C381.308 45.1612 382.295 46.148 383.512 46.148Z" fill="white" fill-opacity="0.7"/>
<rect x="440.5" y="0.5" width="195" height="99" rx="7.5" stroke="white" stroke-opacity="0.15"/>
<path d="M537.693 57.3741H532.573V43.6861H537.693V57.3741ZM533.073 56.8741H537.193V44.1861H533.073V56.8741ZM544.817 57.3741H539.8V43.6861H550.282C551.784 43.5645 553.279 43.9861 554.496 44.8741C555.02 45.3534 555.426 45.9473 555.683 46.6094C555.939 47.2715 556.039 47.9839 555.975 48.6911C556.05 49.9131 555.661 51.1183 554.886 52.0661C553.969 53.1181 552.443 53.6601 550.351 53.6791C549.824 53.6931 545.875 53.6791 544.82 53.6791L544.817 57.3741ZM540.297 56.8741H544.317V53.1741H544.568C544.619 53.1741 549.746 53.1901 550.339 53.1741C552.288 53.1571 553.689 52.6741 554.508 51.7311C555.198 50.8736 555.54 49.7883 555.468 48.6901C555.53 48.0565 555.444 47.4172 555.219 46.8218C554.993 46.2265 554.634 45.6911 554.168 45.2571C553.04 44.4472 551.659 44.067 550.275 44.1851H540.3L540.297 56.8741ZM549.22 50.6041H544.283V46.8781H549.253C549.605 46.8294 549.964 46.8705 550.296 46.9976C550.629 47.1247 550.923 47.3337 551.153 47.6051C551.362 47.952 551.46 48.3541 551.435 48.7581C551.454 49.1332 551.373 49.5066 551.2 49.8401C550.963 50.126 550.656 50.3461 550.309 50.4792C549.963 50.6123 549.588 50.6539 549.22 50.6001V50.6041ZM544.783 50.1041H549.22C550.04 50.1041 550.548 49.9331 550.773 49.5811C550.897 49.3253 550.953 49.0419 550.936 48.7581C550.958 48.4602 550.893 48.1622 550.75 47.9001L550.744 47.8911C550.506 47.5411 550.033 47.3781 549.253 47.3781H544.783V50.1041ZM565.1 57.5761C560.61 57.5761 557.93 56.4611 556.909 54.1681C556.742 53.7252 556.629 53.2639 556.571 52.7941L556.527 52.5061H561.869L561.904 52.7161C561.945 52.9293 562.036 53.13 562.168 53.3021C562.379 53.5571 563.083 53.9851 565.419 53.9851C568.227 53.9851 568.227 53.4921 568.227 53.2271C568.227 52.7801 567.902 52.6271 565.612 52.3831L565.177 52.3421C564.315 52.2611 563.225 52.1581 562.727 52.1151C558.527 51.7351 556.652 50.4301 556.652 47.8851C556.652 45.2121 559.843 43.4851 564.782 43.4851C568.811 43.4851 571.407 44.5471 572.496 46.6441C572.754 47.1319 572.928 47.6601 573.009 48.2061L573.044 48.4871H567.696L567.674 48.2611C567.653 48.0845 567.578 47.9188 567.458 47.7871C567.258 47.5191 566.626 47.0761 564.664 47.0761C562.255 47.0761 561.923 47.3841 561.923 47.7161C561.923 48.1591 562.684 48.3161 565.123 48.5771C566.14 48.6601 567.775 48.8281 568.335 48.8961C571.856 49.2781 573.427 50.5511 573.427 53.0251C573.428 55.1001 571.983 57.5761 565.1 57.5761ZM557.111 53.0061C557.161 53.3359 557.247 53.6591 557.368 53.9701C558.298 56.0591 560.828 57.0761 565.1 57.0761C568.672 57.0761 572.931 56.3761 572.931 53.0251C572.931 50.8321 571.541 49.7461 568.282 49.3931C567.722 49.3251 566.097 49.1581 565.082 49.0741C562.482 48.7921 561.425 48.6421 561.425 47.7161C561.425 46.7581 562.564 46.5761 564.666 46.5761C566.327 46.5761 567.4 46.8761 567.855 47.4811C567.979 47.6302 568.073 47.8021 568.131 47.9871H572.465C572.378 47.6004 572.24 47.2268 572.055 46.8761C571.055 44.9571 568.612 43.9851 564.784 43.9851C560.149 43.9851 557.154 45.5161 557.154 47.8851C557.154 50.1451 558.835 51.2611 562.773 51.6171C563.273 51.6601 564.362 51.7631 565.226 51.8451L565.664 51.8861C567.791 52.1101 568.729 52.2501 568.729 53.2271C568.729 54.2791 567.516 54.4851 565.421 54.4851C563.483 54.4851 562.259 54.1941 561.786 53.6211C561.64 53.4384 561.53 53.2297 561.462 53.0061H557.111ZM582.927 57.5591C577.707 57.5591 574.827 55.4481 574.827 51.6141V43.6861H579.879V51.6141C579.879 52.9291 581.056 53.6831 583.107 53.6831C585.067 53.6831 586.284 52.8961 586.284 51.6311V43.6861H591.284V52.0341C591.289 55.5451 588.24 57.5591 582.924 57.5591H582.927ZM575.327 44.1861V51.6141C575.327 56.3521 580.085 57.0591 582.927 57.0591C585.865 57.0591 590.792 56.4061 590.792 52.0341V44.1861H586.792V51.6311C586.792 53.1811 585.348 54.1831 583.115 54.1831C580.781 54.1831 579.387 53.2231 579.387 51.6141V44.1861H575.327ZM612.472 57.3741H607.704V51.1941L605 57.3741H600.841L598.165 51.2061V57.3741H593.38V43.6861H599.674L602.944 51.2331L606.372 43.6861H612.478L612.472 57.3741ZM608.204 56.8741H611.972V44.1861H606.69L602.928 52.4651L599.342 44.1861H593.876V56.8741H597.661V48.8001L601.161 56.8771H604.661L608.198 48.8121L608.204 56.8741ZM468.054 43.9361H463.5V57.1241H476.084V53.6131H468.054V43.9361ZM485.276 43.6361C479.463 43.6361 476.406 46.3911 476.406 50.4361C476.406 55.0061 479.615 57.3241 485.276 57.3241C491.508 57.3241 494.129 54.6361 494.129 50.4361C494.129 46.1711 491.172 43.6341 485.276 43.6341V43.6361ZM485.259 47.0631C485.655 47.0612 486.05 47.0843 486.443 47.1321L481.352 52.2231C481.111 51.6782 480.994 51.0867 481.008 50.4911C481.008 48.4221 482.05 47.0611 485.259 47.0611V47.0631ZM485.276 53.9511C484.895 53.9528 484.514 53.9314 484.135 53.8871L489.235 48.7871C489.467 49.323 489.578 49.9034 489.56 50.4871C489.56 52.5001 488.6 53.9491 485.276 53.9491V53.9511ZM503.152 52.1511H507.839C507.77 52.4764 507.626 52.7811 507.419 53.0411C506.447 53.8327 505.207 54.2179 503.958 54.1161C503.329 54.1834 502.693 54.1147 502.093 53.9147C501.494 53.7148 500.944 53.3882 500.481 52.9571C500.007 52.262 499.782 51.4272 499.842 50.5881C499.765 49.7088 500.01 48.8316 500.531 48.1191C501.186 47.3791 502.295 47.0601 503.925 47.0601C504.962 46.9742 505.998 47.2406 506.865 47.8161C507.138 48.0332 507.343 48.325 507.453 48.6561H511.8C511.768 48.1106 511.637 47.5754 511.413 47.0771C510.372 44.9601 507.952 43.7001 503.837 43.7001C500.258 43.7001 497.856 44.7921 496.529 46.4391C495.653 47.6285 495.203 49.0785 495.252 50.5551C495.195 52.0651 495.634 53.5522 496.5 54.7901C497.811 56.4901 500.146 57.3261 502.952 57.3261C504.818 57.4562 506.67 56.9337 508.193 55.8481L508.311 57.1241H511.922V49.3121H503.152V52.1511ZM522.171 43.6331C516.359 43.6331 513.301 46.3881 513.301 50.4331C513.301 55.0031 516.509 57.3211 522.171 57.3211C528.404 57.3211 531.025 54.6331 531.025 50.4331C531.025 46.1711 528.068 43.6341 522.171 43.6341V43.6331ZM522.155 47.0601C522.54 47.059 522.925 47.081 523.308 47.1261L518.237 52.2001C518.004 51.6612 517.89 51.0782 517.904 50.4911C517.9 48.4221 518.946 47.0611 522.155 47.0611V47.0601ZM522.171 53.9481C521.78 53.9498 521.389 53.927 521 53.8801L526.117 48.7621C526.358 49.3051 526.473 49.8954 526.454 50.4891C526.456 52.5001 525.5 53.9491 522.171 53.9491V53.9481Z" fill="white" fill-opacity="0.7"/>
<rect x="660.5" y="0.5" width="195" height="99" rx="7.5" stroke="white" stroke-opacity="0.15"/>
<path d="M706.45 39.6499V35.3999H693.05V64.5999H706.45V60.3499C703.705 60.3499 701.072 59.2594 699.131 57.3184C697.19 55.3774 696.1 52.7449 696.1 49.9999C696.1 47.2549 697.19 44.6223 699.131 42.6814C701.072 40.7404 703.705 39.6499 706.45 39.6499Z" fill="white" fill-opacity="0.7"/>
<path d="M706.45 39.6499V60.3499C709.195 60.3499 711.828 59.2594 713.769 57.3184C715.71 55.3774 716.8 52.7449 716.8 49.9999C716.8 47.2549 715.71 44.6223 713.769 42.6814C711.828 40.7404 709.195 39.6499 706.45 39.6499Z" fill="white" fill-opacity="0.7"/>
<path d="M724.32 42.25H727.32V56.7H724.32V42.25Z" fill="white" fill-opacity="0.7"/>
<path d="M729 51.7499C729 50.7103 729.309 49.6941 729.887 48.8301C730.466 47.9661 731.287 47.2932 732.248 46.8967C733.209 46.5003 734.267 46.3981 735.286 46.6031C736.305 46.8081 737.24 47.3111 737.973 48.0483C738.706 48.7856 739.204 49.7238 739.403 50.7442C739.602 51.7646 739.494 52.8211 739.092 53.7799C738.69 54.7386 738.013 55.5565 737.145 56.1297C736.278 56.703 735.26 57.0058 734.22 56.9999C733.531 57.0053 732.847 56.873 732.21 56.6106C731.572 56.3483 730.993 55.9613 730.507 55.4724C730.02 54.9834 729.637 54.4022 729.378 53.763C729.12 53.1238 728.991 52.4394 729 51.7499ZM736.52 51.7499C736.509 51.3017 736.365 50.8669 736.107 50.5C735.85 50.133 735.49 49.8501 735.072 49.6867C734.655 49.5233 734.198 49.4866 733.76 49.5813C733.322 49.6759 732.921 49.8976 732.608 50.2188C732.295 50.5399 732.084 50.9461 732.001 51.3867C731.918 51.8273 731.966 52.2826 732.14 52.6957C732.315 53.1088 732.607 53.4615 732.98 53.7094C733.354 53.9574 733.792 54.0897 734.24 54.0899C734.546 54.0959 734.849 54.0388 735.131 53.9222C735.413 53.8057 735.668 53.6322 735.881 53.4126C736.093 53.193 736.257 52.9319 736.364 52.6459C736.471 52.3598 736.517 52.0548 736.5 51.7499H736.52Z" fill="white" fill-opacity="0.7"/>
<path d="M751.31 46.8001V56.2101C751.31 59.5301 748.71 60.9401 746.08 60.9401C745.153 61.0162 744.222 60.8319 743.394 60.4079C742.565 59.9839 741.871 59.337 741.39 58.5401L743.92 57.0801C744.125 57.4935 744.451 57.8345 744.855 58.0578C745.259 58.2811 745.721 58.3761 746.18 58.3301C746.473 58.3661 746.77 58.3371 747.049 58.2451C747.329 58.153 747.586 58.0003 747.8 57.7977C748.014 57.5951 748.18 57.3478 748.288 57.0733C748.395 56.7989 748.44 56.5041 748.42 56.2101V55.3001C748.071 55.7234 747.628 56.0594 747.127 56.2816C746.625 56.5038 746.078 56.606 745.53 56.5801C744.204 56.5801 742.932 56.0533 741.995 55.1156C741.057 54.178 740.53 52.9062 740.53 51.5801C740.53 50.254 741.057 48.9823 741.995 48.0446C742.932 47.1069 744.204 46.5801 745.53 46.5801C746.078 46.5542 746.625 46.6564 747.127 46.8786C747.628 47.1008 748.071 47.4368 748.42 47.8601V46.8601L751.31 46.8001ZM748.42 51.5501C748.44 51.0717 748.317 50.5982 748.065 50.1906C747.814 49.783 747.447 49.4599 747.01 49.2628C746.574 49.0657 746.088 49.0037 745.616 49.0847C745.144 49.1657 744.707 49.386 744.362 49.7173C744.016 50.0486 743.777 50.4758 743.676 50.9439C743.575 51.412 743.617 51.8995 743.795 52.3439C743.973 52.7883 744.281 53.1692 744.677 53.4376C745.074 53.706 745.541 53.8497 746.02 53.8501C746.333 53.8726 746.646 53.8293 746.941 53.7231C747.236 53.6168 747.505 53.4499 747.731 53.2331C747.957 53.0164 748.135 52.7546 748.254 52.4647C748.373 52.1748 748.429 51.8632 748.42 51.5501Z" fill="white" fill-opacity="0.7"/>
<path d="M753 51.75C753 50.7112 753.309 49.6958 753.886 48.8322C754.463 47.9686 755.284 47.2957 756.244 46.8987C757.203 46.5016 758.26 46.3982 759.278 46.6016C760.297 46.805 761.232 47.306 761.966 48.0412C762.7 48.7765 763.199 49.7129 763.401 50.7319C763.602 51.751 763.497 52.8069 763.098 53.766C762.699 54.7252 762.024 55.5444 761.16 56.1201C760.295 56.6958 759.279 57.002 758.24 57C757.55 57.0067 756.864 56.8754 756.225 56.6138C755.585 56.3522 755.005 55.9656 754.517 55.4766C754.029 54.9876 753.643 54.4061 753.383 53.7662C753.122 53.1263 752.992 52.4408 753 51.75ZM760.52 51.75C760.509 51.3014 760.365 50.8662 760.107 50.499C759.849 50.1319 759.488 49.849 759.07 49.6859C758.652 49.5228 758.195 49.4867 757.756 49.5822C757.318 49.6776 756.917 49.9004 756.605 50.2225C756.292 50.5446 756.082 50.9518 756 51.393C755.918 51.8342 755.967 52.2898 756.143 52.7027C756.319 53.1157 756.613 53.4676 756.987 53.7144C757.362 53.9611 757.802 54.0918 758.25 54.09C758.556 54.096 758.859 54.0389 759.141 53.9223C759.423 53.8058 759.678 53.6323 759.89 53.4127C760.103 53.1931 760.267 52.932 760.374 52.646C760.48 52.3599 760.527 52.0549 760.51 51.75H760.52Z" fill="white" fill-opacity="0.7"/>
<path d="M764.87 44.1501C764.87 43.7981 764.975 43.4539 765.17 43.1612C765.366 42.8685 765.644 42.6403 765.969 42.5056C766.294 42.3709 766.652 42.3356 766.997 42.4043C767.343 42.473 767.66 42.6425 767.909 42.8915C768.158 43.1404 768.327 43.4576 768.396 43.8028C768.465 44.1481 768.429 44.506 768.295 44.8313C768.16 45.1565 767.932 45.4345 767.639 45.6301C767.346 45.8257 767.002 45.9301 766.65 45.9301C766.18 45.9249 765.73 45.7357 765.397 45.403C765.065 45.0703 764.875 44.6206 764.87 44.1501ZM765.16 46.8001H768.16V56.7001H765.16V46.8001Z" fill="white" fill-opacity="0.7"/>
<path d="M781 51.7501C781.034 52.4085 780.937 53.0671 780.715 53.6879C780.493 54.3087 780.151 54.8795 779.708 55.3674C779.264 55.8554 778.729 56.2508 778.132 56.531C777.535 56.8112 776.889 56.9706 776.23 57.0001C775.672 57.0373 775.111 56.9478 774.592 56.7383C774.073 56.5287 773.607 56.2046 773.23 55.7901V60.6801H770.23V46.8001H773.23V47.7301C773.608 47.3168 774.073 46.9942 774.593 46.7864C775.112 46.5785 775.672 46.4909 776.23 46.5301C776.886 46.5596 777.53 46.7181 778.125 46.9964C778.72 47.2747 779.254 47.6675 779.697 48.1522C780.14 48.6369 780.483 49.2041 780.706 49.8215C780.93 50.4388 781.03 51.0941 781 51.7501ZM778 51.7501C777.989 51.2856 777.84 50.835 777.573 50.4547C777.306 50.0744 776.933 49.7812 776.5 49.6121C776.068 49.4429 775.595 49.4053 775.141 49.5038C774.687 49.6023 774.272 49.8327 773.948 50.166C773.624 50.4993 773.406 50.9207 773.321 51.3775C773.236 51.8342 773.288 52.3059 773.469 52.7335C773.651 53.161 773.955 53.5254 774.343 53.781C774.731 54.0366 775.186 54.1719 775.65 54.1701C775.969 54.1836 776.286 54.1297 776.582 54.0119C776.878 53.8941 777.146 53.7151 777.368 53.4866C777.59 53.2581 777.761 52.9852 777.87 52.686C777.979 52.3867 778.023 52.0678 778 51.7501Z" fill="white" fill-opacity="0.7"/>
<path d="M790.13 53.73C790.13 56.01 788.13 56.98 786.01 56.98C785.145 57.0578 784.277 56.8745 783.518 56.4538C782.758 56.0331 782.143 55.3943 781.75 54.62L784.33 53.16C784.432 53.5168 784.654 53.8277 784.958 54.0407C785.262 54.2537 785.63 54.3558 786 54.33C786.71 54.33 787.07 54.11 787.07 53.71C787.07 52.62 782.2 53.2 782.2 49.77C782.2 47.61 784.02 46.53 786.08 46.53C786.863 46.4949 787.641 46.6726 788.331 47.0441C789.021 47.4156 789.598 47.9671 790 48.64L787.42 50C787.306 49.742 787.12 49.5226 786.884 49.3682C786.648 49.2138 786.372 49.1311 786.09 49.13C785.57 49.13 785.26 49.33 785.26 49.68C785.26 50.82 790.13 50.07 790.13 53.73Z" fill="white" fill-opacity="0.7"/>
<path d="M801 46.8V56.7H798V55.77C797.659 56.1817 797.226 56.5074 796.737 56.7211C796.247 56.9348 795.714 57.0303 795.18 57C793.18 57 791.47 55.57 791.47 52.9V46.8H794.47V52.45C794.446 52.6862 794.474 52.9247 794.552 53.1491C794.63 53.3734 794.755 53.5782 794.919 53.7494C795.084 53.9205 795.284 54.0539 795.505 54.1404C795.726 54.2268 795.963 54.2642 796.2 54.25C797.28 54.25 798.04 53.61 798.04 52.25V46.8H801Z" fill="white" fill-opacity="0.7"/>
<path d="M818 50.62V56.7H815V50.88C815 49.88 814.53 49.26 813.58 49.26C812.63 49.26 812.03 49.95 812.03 51.12V56.7H809.03V50.88C809.03 49.88 808.56 49.26 807.61 49.26C806.66 49.26 806.06 49.95 806.06 51.12V56.7H803.06V46.8H806.06V47.71C806.371 47.308 806.776 46.9896 807.241 46.7836C807.705 46.5776 808.214 46.4904 808.72 46.53C809.227 46.5035 809.733 46.6095 810.187 46.8374C810.641 47.0653 811.028 47.4074 811.31 47.83C811.64 47.3884 812.076 47.0376 812.578 46.8103C813.079 46.5829 813.631 46.4865 814.18 46.53C816.52 46.53 818 48.15 818 50.62Z" fill="white" fill-opacity="0.7"/>
<path d="M820.52 46.7401C821.735 46.7401 822.72 45.7551 822.72 44.5401C822.72 43.3251 821.735 42.3401 820.52 42.3401C819.305 42.3401 818.32 43.3251 818.32 44.5401C818.32 45.7551 819.305 46.7401 820.52 46.7401Z" fill="white" fill-opacity="0.7"/>
<rect x="880.5" y="0.5" width="195" height="99" rx="7.5" stroke="white" stroke-opacity="0.15"/>
<path d="M952.87 44.0699H955.87V56.1999H952.87V44.0699ZM957.06 51.6199C957.06 48.6199 958.9 46.8299 961.74 46.8299C964.58 46.8299 966.42 48.6199 966.42 51.6199C966.42 54.6199 964.62 56.4199 961.74 56.4199C958.86 56.4199 957.06 54.6699 957.06 51.6199ZM963.41 51.6199C963.41 49.9699 962.76 48.9999 961.74 48.9999C960.72 48.9999 960.08 49.9999 960.08 51.6199C960.08 53.2399 960.71 54.2199 961.74 54.2199C962.77 54.2199 963.41 53.2999 963.41 51.6299V51.6199ZM967.55 56.7899H970.43C970.567 57.0944 970.799 57.3465 971.091 57.5087C971.383 57.6708 971.719 57.7344 972.05 57.6899C973.19 57.6899 973.79 57.0699 973.79 56.1699V54.4899H973.73C973.491 55.0048 973.103 55.4362 972.617 55.7286C972.13 56.0209 971.567 56.1607 971 56.1299C968.81 56.1299 967.36 54.4599 967.36 51.5899C967.36 48.7199 968.74 46.9099 971.04 46.9099C971.625 46.887 972.202 47.0433 972.696 47.3578C973.189 47.6724 973.574 48.1302 973.8 48.6699V46.9999H976.8V56.0999C976.8 58.2899 974.87 59.6499 972.02 59.6499C969.37 59.6499 967.72 58.4599 967.55 56.7999V56.7899ZM973.8 51.6099C973.8 50.1499 973.13 49.2299 972.07 49.2299C971.01 49.2299 970.36 50.1399 970.36 51.6099C970.36 53.0799 971 53.9099 972.07 53.9099C973.14 53.9099 973.8 53.0999 973.8 51.6199V51.6099ZM977.93 51.6099C977.93 48.6099 979.77 46.8199 982.61 46.8199C985.45 46.8199 987.3 48.6099 987.3 51.6099C987.3 54.6099 985.5 56.4099 982.61 56.4099C979.72 56.4099 977.93 54.6699 977.93 51.6199V51.6099ZM984.28 51.6099C984.28 49.9599 983.63 48.9899 982.61 48.9899C981.59 48.9899 981 49.9999 981 51.6299C981 53.2599 981.63 54.2299 982.65 54.2299C983.67 54.2299 984.28 53.2999 984.28 51.6299V51.6099ZM988.44 44.8199C988.432 44.517 988.515 44.2186 988.676 43.9625C988.838 43.7064 989.073 43.5042 989.35 43.3814C989.627 43.2587 989.934 43.2209 990.232 43.273C990.531 43.325 990.807 43.4646 991.026 43.6738C991.246 43.8831 991.398 44.1527 991.463 44.4485C991.529 44.7443 991.505 45.0529 991.395 45.3353C991.285 45.6176 991.094 45.861 990.846 46.0345C990.597 46.208 990.303 46.3039 990 46.3099C989.799 46.3237 989.598 46.2958 989.408 46.228C989.219 46.1602 989.045 46.054 988.899 45.9159C988.752 45.7779 988.636 45.611 988.557 45.4258C988.478 45.2407 988.438 45.0412 988.44 44.8399V44.8199ZM988.44 47.0199H991.44V56.1999H988.44V47.0199ZM1002.33 51.6099C1002.33 54.6099 1001 56.3199 998.72 56.3199C998.136 56.3574 997.553 56.2145 997.053 55.9105C996.552 55.6064 996.157 55.1559 995.92 54.6199H995.86V59.1399H992.86V46.9999H995.86V48.6399H995.92C996.146 48.095 996.533 47.6328 997.031 47.3161C997.528 46.9994 998.111 46.8436 998.7 46.8699C1001 46.9099 1002.37 48.6299 1002.37 51.6299L1002.33 51.6099ZM999.33 51.6099C999.33 50.1499 998.66 49.2199 997.61 49.2199C996.56 49.2199 995.89 50.1599 995.88 51.6099C995.87 53.0599 996.56 53.9899 997.61 53.9899C998.66 53.9899 999.33 53.0799 999.33 51.6299V51.6099ZM1007.48 46.8099C1009.97 46.8099 1011.48 47.9899 1011.55 49.8799H1008.82C1008.82 49.2299 1008.28 48.8199 1007.45 48.8199C1006.62 48.8199 1006.25 49.1399 1006.25 49.6099C1006.25 50.0799 1006.58 50.2299 1007.25 50.3699L1009.17 50.7599C1011 51.1499 1011.78 51.8899 1011.78 53.2799C1011.78 55.1799 1010.05 56.3999 1007.5 56.3999C1004.95 56.3999 1003.28 55.1799 1003.15 53.3099H1006.04C1006.13 53.9899 1006.67 54.3899 1007.55 54.3899C1008.43 54.3899 1008.83 54.0999 1008.83 53.6199C1008.83 53.1399 1008.55 53.0399 1007.83 52.8899L1006.1 52.5199C1004.31 52.1499 1003.37 51.1999 1003.37 49.7999C1003.39 47.9999 1005 46.8299 1007.48 46.8299V46.8099ZM1021.79 56.1799H1018.9V54.4699H1018.84C1018.68 55.044 1018.33 55.5465 1017.85 55.894C1017.36 56.2414 1016.78 56.4129 1016.18 56.3799C1015.72 56.4058 1015.27 56.3336 1014.84 56.1681C1014.42 56.0026 1014.03 55.7478 1013.71 55.4207C1013.4 55.0937 1013.15 54.702 1013 54.2723C1012.84 53.8426 1012.78 53.3848 1012.82 52.9299V46.9999H1015.82V52.2399C1015.82 53.3299 1016.38 53.9099 1017.31 53.9099C1017.53 53.9103 1017.74 53.8642 1017.94 53.7745C1018.14 53.6848 1018.32 53.5536 1018.46 53.3898C1018.61 53.2259 1018.71 53.0332 1018.78 52.8246C1018.84 52.6159 1018.86 52.3961 1018.83 52.1799V46.9999H1021.83L1021.79 56.1799ZM1023.24 46.9999H1026.14V48.7699H1026.2C1026.36 48.2034 1026.7 47.7056 1027.17 47.3546C1027.65 47.0036 1028.22 46.819 1028.81 46.8299C1029.41 46.782 1030 46.9611 1030.48 47.3317C1030.95 47.7023 1031.26 48.2371 1031.36 48.8299H1031.42C1031.6 48.2308 1031.98 47.7092 1032.49 47.3471C1033 46.985 1033.62 46.803 1034.24 46.8299C1034.65 46.8162 1035.05 46.8885 1035.43 47.0421C1035.81 47.1956 1036.15 47.4271 1036.44 47.7213C1036.72 48.0156 1036.94 48.3661 1037.08 48.75C1037.21 49.1339 1037.27 49.5428 1037.24 49.9499V56.1999H1034.24V50.7499C1034.24 49.7499 1033.79 49.2899 1032.95 49.2899C1032.76 49.2883 1032.58 49.3269 1032.41 49.4031C1032.24 49.4793 1032.08 49.5913 1031.96 49.7316C1031.83 49.8719 1031.74 50.0371 1031.69 50.2162C1031.63 50.3954 1031.62 50.5842 1031.64 50.7699V56.1999H1028.79V50.7099C1028.79 49.7899 1028.34 49.2899 1027.52 49.2899C1027.33 49.29 1027.14 49.3302 1026.97 49.4079C1026.8 49.4857 1026.64 49.5992 1026.52 49.7409C1026.39 49.8826 1026.3 50.0494 1026.24 50.2303C1026.19 50.4111 1026.17 50.6018 1026.19 50.7899V56.1999H1023.19L1023.24 46.9999Z" fill="white" fill-opacity="0.7"/>
<path d="M944.48 44.6199C943.971 43.4563 943.297 42.3718 942.48 41.3999C941.271 39.9202 939.763 38.7133 938.054 37.8585C936.346 37.0037 934.475 36.5205 932.567 36.4406C930.658 36.3606 928.754 36.6859 926.98 37.3949C925.206 38.1039 923.602 39.1805 922.274 40.554C920.946 41.9275 919.924 43.5666 919.275 45.3636C918.626 47.1605 918.365 49.0745 918.509 50.9795C918.653 52.8846 919.199 54.7375 920.111 56.4163C921.023 58.0952 922.28 59.5619 923.8 60.7199C924.775 61.4778 925.852 62.0939 927 62.5499C928.609 63.2093 930.331 63.5489 932.07 63.5499C935.659 63.542 939.099 62.1112 941.635 59.5712C944.171 57.0312 945.597 53.5893 945.6 49.9999C945.602 48.1484 945.221 46.3165 944.48 44.6199ZM932.06 39.1899C933.621 39.1897 935.164 39.531 936.58 40.1899C936.234 40.3391 935.871 40.4432 935.5 40.4999C934.276 40.677 933.143 41.245 932.269 42.1191C931.395 42.9932 930.827 44.1265 930.65 45.3499C930.572 46.036 930.26 46.6743 929.766 47.1571C929.272 47.6399 928.627 47.9375 927.94 47.9999C926.716 48.177 925.583 48.745 924.709 49.6191C923.835 50.4932 923.267 51.6265 923.09 52.8499C923.03 53.5023 922.751 54.1154 922.3 54.5899C921.52 52.9432 921.17 51.126 921.282 49.3076C921.394 47.4892 921.964 45.7286 922.939 44.1896C923.914 42.6507 925.262 41.3834 926.859 40.5057C928.455 39.6281 930.248 39.1685 932.07 39.1699L932.06 39.1899ZM923.79 56.9999C923.91 56.8899 924.03 56.7899 924.15 56.6699C925.039 55.8074 925.61 54.6688 925.77 53.4399C925.834 52.7491 926.143 52.1039 926.64 51.6199C927.118 51.1221 927.762 50.8162 928.45 50.7599C929.673 50.5828 930.806 50.0148 931.68 49.1407C932.555 48.2666 933.123 47.1333 933.3 45.9099C933.343 45.1874 933.653 44.5067 934.17 43.9999C934.66 43.5117 935.31 43.217 936 43.1699C937.124 43.0153 938.172 42.5156 939 41.7399C939.942 42.522 940.741 43.4628 941.36 44.5199C941.322 44.5712 941.278 44.6182 941.23 44.6599C940.752 45.1621 940.109 45.4747 939.42 45.5399C938.195 45.7139 937.06 46.2809 936.185 47.1555C935.311 48.0302 934.744 49.1652 934.57 50.3899C934.499 51.0783 934.193 51.7212 933.703 52.2096C933.212 52.6981 932.568 53.002 931.88 53.0699C930.653 53.2456 929.515 53.8125 928.636 54.6862C927.757 55.56 927.183 56.694 927 57.9199C926.946 58.4086 926.778 58.8779 926.51 59.2899C925.484 58.6807 924.565 57.9071 923.79 56.9999ZM932.06 60.8599C931.045 60.861 930.035 60.7196 929.06 60.4399C929.393 59.8179 929.61 59.14 929.7 58.4399C929.77 57.753 930.075 57.1113 930.563 56.6231C931.051 56.1349 931.693 55.83 932.38 55.7599C933.605 55.5848 934.74 55.0177 935.617 54.1434C936.493 53.2692 937.062 52.1347 937.24 50.9099C937.31 50.223 937.615 49.5813 938.103 49.0931C938.591 48.6049 939.233 48.3 939.92 48.2299C940.842 48.11 941.72 47.7667 942.48 47.2299C942.901 48.8278 942.951 50.501 942.626 52.1212C942.3 53.7414 941.608 55.2656 940.602 56.5767C939.596 57.8877 938.303 58.951 936.822 59.6848C935.341 60.4186 933.712 60.8035 932.06 60.8099V60.8599Z" fill="white" fill-opacity="0.7"/>
<rect x="1100" width="196" height="100" rx="8" fill="white" fill-opacity="0.04"/>
<rect x="1100.5" y="0.5" width="195" height="99" rx="7.5" stroke="white" stroke-opacity="0.15"/>
<path d="M1162.52 45.25C1162.88 45.25 1163 45.38 1163 45.73V53.65H1167.07C1167.42 53.65 1167.55 53.78 1167.55 54.13V54.83C1167.55 55.18 1167.42 55.31 1167.07 55.31H1161.71C1161.36 55.31 1161.22 55.18 1161.22 54.83V45.73C1161.22 45.38 1161.36 45.25 1161.71 45.25H1162.52Z" fill="white" fill-opacity="0.7"/>
<path d="M1171.1 48.74C1171.1 46.43 1172.56 45.04 1175.1 45.04C1177.64 45.04 1179.1 46.43 1179.1 48.74V51.82C1179.1 54.13 1177.63 55.52 1175.1 55.52C1172.57 55.52 1171.1 54.13 1171.1 51.82V48.74ZM1177.42 48.74C1177.42 47.44 1176.61 46.74 1175.15 46.74C1173.69 46.74 1172.89 47.45 1172.89 48.74V51.84C1172.89 53.15 1173.69 53.84 1175.15 53.84C1176.61 53.84 1177.42 53.12 1177.42 51.84V48.74Z" fill="white" fill-opacity="0.7"/>
<path d="M1191.01 49.8C1191.4 49.8 1191.49 49.93 1191.49 50.28V52.18C1191.5 52.6275 1191.41 53.0718 1191.23 53.4801C1191.04 53.8885 1190.77 54.2506 1190.43 54.54C1189.58 55.2155 1188.51 55.5506 1187.43 55.48C1184.84 55.48 1183.43 54.09 1183.43 51.78V48.68C1183.43 46.4 1184.89 45 1187.43 45C1189.43 45 1190.73 45.79 1191.28 47.37C1191.31 47.4294 1191.33 47.4951 1191.33 47.5619C1191.33 47.6288 1191.31 47.695 1191.28 47.7551C1191.26 47.8153 1191.21 47.8679 1191.16 47.9087C1191.11 47.9494 1191.05 47.9773 1190.98 47.99L1190.2 48.26C1189.86 48.38 1189.72 48.31 1189.6 47.96C1189.43 47.5329 1189.13 47.1731 1188.74 46.9377C1188.34 46.7023 1187.88 46.6045 1187.43 46.66C1185.96 46.66 1185.16 47.37 1185.16 48.66V51.84C1185.16 53.15 1185.97 53.84 1187.43 53.84C1188.89 53.84 1189.79 53.17 1189.79 52.19V51.45H1187.62C1187.26 51.45 1187.13 51.31 1187.13 50.96V50.28C1187.13 49.93 1187.26 49.8 1187.62 49.8H1191.01Z" fill="white" fill-opacity="0.7"/>
<path d="M1195.62 48.74C1195.62 46.43 1197.08 45.04 1199.62 45.04C1202.16 45.04 1203.62 46.43 1203.62 48.74V51.82C1203.62 54.13 1202.15 55.52 1199.62 55.52C1197.09 55.52 1195.62 54.13 1195.62 51.82V48.74ZM1201.93 48.74C1201.93 47.44 1201.12 46.74 1199.67 46.74C1198.22 46.74 1197.4 47.45 1197.4 48.74V51.84C1197.4 53.15 1198.21 53.84 1199.67 53.84C1201.13 53.84 1201.93 53.12 1201.93 51.84V48.74Z" fill="white" fill-opacity="0.7"/>
<path d="M1208.33 45.54C1208.33 45.32 1208.4 45.25 1208.62 45.25H1209.08C1209.3 45.25 1209.35 45.32 1209.35 45.54V55.02C1209.35 55.24 1209.35 55.31 1209.08 55.31H1208.62C1208.4 55.31 1208.33 55.24 1208.33 55.02V45.54Z" fill="white" fill-opacity="0.7"/>
<path d="M1218.46 45.25C1219.29 45.25 1220.09 45.5808 1220.68 46.1697C1221.27 46.7585 1221.6 47.5572 1221.6 48.39C1221.6 49.2228 1221.27 50.0215 1220.68 50.6103C1220.09 51.1992 1219.29 51.53 1218.46 51.53H1215.46V55.02C1215.46 55.24 1215.41 55.31 1215.2 55.31H1214.73C1214.52 55.31 1214.44 55.24 1214.44 55.02V45.54C1214.44 45.32 1214.52 45.25 1214.73 45.25H1218.46ZM1218.37 50.54C1218.66 50.54 1218.94 50.4836 1219.2 50.3741C1219.47 50.2645 1219.71 50.1039 1219.91 49.9015C1220.11 49.6991 1220.27 49.4587 1220.38 49.1943C1220.49 48.9298 1220.55 48.6463 1220.55 48.36C1220.55 48.0737 1220.49 47.7902 1220.38 47.5257C1220.27 47.2613 1220.11 47.0209 1219.91 46.8185C1219.71 46.6161 1219.47 46.4555 1219.2 46.3459C1218.94 46.2364 1218.66 46.18 1218.37 46.18H1215.37V50.54H1218.37Z" fill="white" fill-opacity="0.7"/>
<path d="M1229.41 45.0501C1230.18 44.9649 1230.96 45.131 1231.63 45.5237C1232.3 45.9165 1232.83 46.5149 1233.13 47.2301C1233.21 47.3901 1233.13 47.5201 1232.97 47.6001L1232.53 47.8001C1232.35 47.8701 1232.28 47.8601 1232.17 47.6701C1231.94 47.1393 1231.55 46.6943 1231.06 46.3995C1230.56 46.1047 1229.98 45.9753 1229.41 46.0301C1227.72 46.0301 1226.8 46.7001 1226.8 47.9001C1226.79 48.2668 1226.91 48.6248 1227.15 48.9078C1227.38 49.1908 1227.71 49.3799 1228.07 49.4401C1228.61 49.6155 1229.17 49.723 1229.73 49.7601C1230.41 49.7965 1231.09 49.9347 1231.73 50.1701C1232.22 50.326 1232.65 50.6466 1232.93 51.0782C1233.22 51.5098 1233.34 52.026 1233.29 52.5401C1233.29 54.4101 1231.93 55.5401 1229.43 55.5401C1228.61 55.6339 1227.78 55.4439 1227.09 55.0017C1226.39 54.5596 1225.86 53.8919 1225.6 53.1101C1225.58 53.0745 1225.57 53.0354 1225.57 52.9956C1225.57 52.9558 1225.58 52.9164 1225.6 52.8801C1225.61 52.8438 1225.64 52.8115 1225.67 52.7856C1225.7 52.7596 1225.73 52.7407 1225.77 52.7301L1226.21 52.5701C1226.24 52.5559 1226.28 52.5491 1226.32 52.5501C1226.36 52.5511 1226.39 52.5599 1226.43 52.5759C1226.46 52.5919 1226.49 52.6147 1226.52 52.643C1226.54 52.6713 1226.56 52.7043 1226.57 52.7401C1226.79 53.305 1227.19 53.784 1227.71 54.1077C1228.22 54.4313 1228.82 54.5828 1229.43 54.5401C1231.32 54.5401 1232.25 53.8801 1232.25 52.5401C1232.27 52.1879 1232.16 51.8408 1231.95 51.5606C1231.73 51.2805 1231.42 51.0854 1231.08 51.0101C1230.56 50.8558 1230.03 50.7618 1229.49 50.7301L1228.41 50.5901C1228.07 50.5184 1227.74 50.4282 1227.41 50.3201C1227.09 50.2222 1226.78 50.0626 1226.52 49.8501C1226.26 49.6099 1226.05 49.3143 1225.91 48.9842C1225.77 48.6541 1225.71 48.2977 1225.72 47.9401C1225.79 46.1901 1227.1 45.0501 1229.41 45.0501Z" fill="white" fill-opacity="0.7"/>
<path d="M1238.68 51.89C1238.72 52.5972 1239.03 53.2615 1239.55 53.7472C1240.07 54.2329 1240.75 54.5033 1241.46 54.5033C1242.16 54.5033 1242.85 54.2329 1243.36 53.7472C1243.88 53.2615 1244.19 52.5972 1244.23 51.89V45.54C1244.23 45.32 1244.3 45.25 1244.52 45.25H1244.98C1245.2 45.25 1245.27 45.32 1245.27 45.54V51.88C1245.27 54.15 1243.93 55.52 1241.46 55.52C1238.99 55.52 1237.65 54.15 1237.65 51.88V45.54C1237.65 45.32 1237.72 45.25 1237.93 45.25H1238.4C1238.61 45.25 1238.68 45.32 1238.68 45.54V51.89Z" fill="white" fill-opacity="0.7"/>
<path d="M1259.07 45.25C1259.29 45.25 1259.36 45.32 1259.36 45.54V55.02C1259.36 55.24 1259.29 55.31 1259.07 55.31H1258.65C1258.44 55.31 1258.37 55.24 1258.37 55.02V49.25C1258.37 48.4105 1258.43 47.5719 1258.54 46.74H1258.48C1258.17 47.5007 1257.8 48.2391 1257.39 48.95L1255.24 52.74C1255.21 52.8058 1255.17 52.862 1255.11 52.9013C1255.05 52.9405 1254.98 52.961 1254.91 52.96H1254.63C1254.56 52.9604 1254.49 52.9397 1254.43 52.9007C1254.37 52.8616 1254.32 52.8058 1254.29 52.74L1252.11 48.91C1251.72 48.2093 1251.39 47.4806 1251.11 46.73H1251.05C1251.15 47.5695 1251.21 48.4143 1251.21 49.26V55.02C1251.21 55.24 1251.14 55.31 1250.92 55.31H1250.53C1250.31 55.31 1250.24 55.24 1250.24 55.02V45.54C1250.24 45.32 1250.31 45.25 1250.53 45.25H1250.89C1250.97 45.2424 1251.06 45.2603 1251.13 45.3015C1251.2 45.3427 1251.26 45.4051 1251.29 45.48L1254.79 51.7L1258.27 45.54C1258.38 45.33 1258.44 45.3 1258.66 45.3L1259.07 45.25Z" fill="white" fill-opacity="0.7"/>
<path d="M1144.73 53.79V61.02C1144.73 61.2972 1144.62 61.563 1144.42 61.7589C1144.23 61.9549 1143.96 62.065 1143.69 62.065C1143.41 62.065 1143.14 61.9549 1142.95 61.7589C1142.75 61.563 1142.64 61.2972 1142.64 61.02V53.8C1142.93 54.0125 1143.28 54.1311 1143.64 54.14C1144.03 54.1512 1144.42 54.0277 1144.73 53.79ZM1153.63 51.7C1153.36 51.7 1153.11 51.8054 1152.92 51.9929C1152.74 52.1804 1152.63 52.4348 1152.63 52.7V53.96C1152.63 54.2372 1152.74 54.503 1152.94 54.6989C1153.13 54.8949 1153.4 55.005 1153.67 55.005C1153.95 55.005 1154.22 54.8949 1154.41 54.6989C1154.61 54.503 1154.72 54.2372 1154.72 53.96V52.75C1154.73 52.6066 1154.7 52.4632 1154.65 52.3296C1154.6 52.196 1154.52 52.0752 1154.42 51.9756C1154.31 51.876 1154.19 51.7998 1154.05 51.7522C1153.92 51.7047 1153.77 51.6869 1153.63 51.7ZM1140.37 56.53C1140.01 56.5192 1139.66 56.4008 1139.37 56.19V63.44C1139.37 63.7185 1139.48 63.9856 1139.68 64.1825C1139.87 64.3794 1140.14 64.49 1140.42 64.49C1140.7 64.49 1140.97 64.3794 1141.16 64.1825C1141.36 63.9856 1141.47 63.7185 1141.47 63.44V56.24C1141.14 56.4511 1140.76 56.5527 1140.37 56.53ZM1150.37 49.53C1150.23 49.5232 1150.1 49.5441 1149.97 49.5913C1149.84 49.6385 1149.73 49.7111 1149.63 49.8046C1149.53 49.8982 1149.45 50.0107 1149.4 50.1354C1149.35 50.2601 1149.32 50.3944 1149.32 50.53V56.1C1149.32 56.3785 1149.43 56.6456 1149.63 56.8425C1149.82 57.0394 1150.09 57.15 1150.37 57.15C1150.65 57.15 1150.92 57.0394 1151.11 56.8425C1151.31 56.6456 1151.42 56.3785 1151.42 56.1V50.6C1151.43 50.4557 1151.4 50.3114 1151.35 50.177C1151.3 50.0426 1151.22 49.9213 1151.11 49.8215C1151.01 49.7217 1150.88 49.6457 1150.75 49.5989C1150.61 49.552 1150.46 49.5353 1150.32 49.55L1150.37 49.53ZM1147.05 51.67C1146.67 51.6674 1146.31 51.5487 1146 51.33V58.6C1146 58.8785 1146.11 59.1456 1146.31 59.3425C1146.5 59.5394 1146.77 59.65 1147.05 59.65C1147.33 59.65 1147.6 59.5394 1147.79 59.3425C1147.99 59.1456 1148.1 58.8785 1148.1 58.6V51.34C1147.78 51.5763 1147.4 51.6995 1147 51.69L1147.05 51.67ZM1138.1 57.24V36.93C1138.1 36.6824 1138 36.4459 1137.82 36.2718C1137.65 36.0977 1137.41 36 1137.16 36H1136.94C1136.69 36 1136.45 36.0977 1136.28 36.2718C1136.1 36.4459 1136 36.6824 1136 36.93V57.24C1136 57.4893 1136.1 57.7284 1136.28 57.9047C1136.45 58.081 1136.69 58.18 1136.94 58.18H1137.16C1137.41 58.18 1137.65 58.081 1137.82 57.9047C1138 57.7284 1138.1 57.4893 1138.1 57.24ZM1140.48 55.76H1140.26C1140.01 55.76 1139.77 55.661 1139.6 55.4847C1139.42 55.3084 1139.32 55.0693 1139.32 54.82V39.35C1139.32 39.1024 1139.42 38.8659 1139.6 38.6918C1139.77 38.5177 1140.01 38.42 1140.26 38.42H1140.48C1140.73 38.42 1140.97 38.5177 1141.14 38.6918C1141.32 38.8659 1141.42 39.1024 1141.42 39.35V54.84C1141.42 55.0893 1141.32 55.3284 1141.14 55.5047C1140.97 55.681 1140.73 55.78 1140.48 55.78V55.76ZM1143.79 53.38H1143.56C1143.31 53.38 1143.08 53.282 1142.9 53.1076C1142.73 52.9332 1142.63 52.6967 1142.63 52.45V41.75C1142.63 41.627 1142.65 41.505 1142.7 41.391C1142.74 41.277 1142.81 41.1733 1142.9 41.0859C1142.99 40.9985 1143.09 40.9291 1143.2 40.8817C1143.32 40.8344 1143.44 40.81 1143.56 40.81H1143.79C1144.04 40.8126 1144.27 40.9128 1144.45 41.0888C1144.62 41.2648 1144.72 41.5024 1144.72 41.75V52.45C1144.72 52.6967 1144.62 52.9332 1144.45 53.1076C1144.27 53.282 1144.04 53.38 1143.79 53.38ZM1147.1 50.93H1146.89C1146.64 50.93 1146.4 50.8324 1146.23 50.6582C1146.05 50.4841 1145.95 50.2476 1145.95 50V44.24C1145.94 44.1116 1145.96 43.9829 1146 43.8618C1146.05 43.7408 1146.12 43.6299 1146.2 43.5362C1146.29 43.4424 1146.4 43.3678 1146.52 43.3168C1146.63 43.2659 1146.76 43.2397 1146.89 43.24H1147.11C1147.36 43.24 1147.6 43.339 1147.77 43.5153C1147.95 43.6916 1148.05 43.9307 1148.05 44.18V49.98C1148.05 50.1043 1148.03 50.2276 1147.98 50.3428C1147.93 50.458 1147.87 50.5628 1147.78 50.6512C1147.69 50.7395 1147.59 50.8096 1147.47 50.8575C1147.36 50.9054 1147.23 50.93 1147.11 50.93H1147.1ZM1150.42 48.78H1150.2C1149.95 48.78 1149.71 48.681 1149.54 48.5047C1149.36 48.3284 1149.26 48.0893 1149.26 47.84V46.35C1149.26 46.1024 1149.36 45.8659 1149.54 45.6918C1149.71 45.5176 1149.95 45.42 1150.2 45.42H1150.42C1150.67 45.42 1150.91 45.5176 1151.08 45.6918C1151.26 45.8659 1151.36 46.1024 1151.36 46.35V47.84C1151.36 48.0876 1151.26 48.3252 1151.09 48.5012C1150.91 48.6772 1150.68 48.7774 1150.43 48.78H1150.42Z" fill="white" fill-opacity="0.7"/>
</svg>
