<svg width="152" height="44" viewBox="0 0 152 44" fill="none" xmlns="http://www.w3.org/2000/svg">
<rect width="44" height="44" rx="22" fill="white" fill-opacity="0.05"/>
<path d="M26.293 19.293L22 23.586L17.707 19.293L16.293 20.707L22 26.414L27.707 20.707L26.293 19.293Z" fill="white"/>
<path opacity="0.7" d="M61.145 27V16.92H64.204C64.3114 16.92 64.4934 16.9223 64.75 16.927C65.0114 16.9317 65.261 16.9503 65.499 16.983C66.2644 17.0903 66.9037 17.375 67.417 17.837C67.9304 18.299 68.3154 18.887 68.572 19.601C68.8287 20.315 68.957 21.1013 68.957 21.96C68.957 22.8187 68.8287 23.605 68.572 24.319C68.3154 25.033 67.9304 25.621 67.417 26.083C66.9037 26.545 66.2644 26.8297 65.499 26.937C65.2657 26.965 65.016 26.9837 64.75 26.993C64.484 26.9977 64.302 27 64.204 27H61.145ZM62.209 26.013H64.204C64.3954 26.013 64.6007 26.0083 64.82 25.999C65.044 25.985 65.2354 25.9617 65.394 25.929C65.982 25.8263 66.4557 25.5883 66.815 25.215C67.179 24.8417 67.445 24.375 67.613 23.815C67.781 23.2503 67.865 22.632 67.865 21.96C67.865 21.2833 67.781 20.6627 67.613 20.098C67.445 19.5333 67.179 19.0667 66.815 18.698C66.451 18.3293 65.9774 18.0937 65.394 17.991C65.2354 17.9583 65.0417 17.9373 64.813 17.928C64.589 17.914 64.386 17.907 64.204 17.907H62.209V26.013ZM70.6913 18.005V16.85H71.7203V18.005H70.6913ZM70.6913 27V19.44H71.7203V27H70.6913ZM76.6399 27.203C75.7532 27.203 75.0229 27.0117 74.4489 26.629C73.8795 26.2463 73.5295 25.7143 73.3989 25.033L74.4489 24.858C74.5609 25.2873 74.8152 25.6303 75.2119 25.887C75.6132 26.139 76.1079 26.265 76.6959 26.265C77.2699 26.265 77.7225 26.146 78.0539 25.908C78.3852 25.6653 78.5509 25.3363 78.5509 24.921C78.5509 24.6877 78.4972 24.4987 78.3899 24.354C78.2872 24.2047 78.0749 24.067 77.7529 23.941C77.4309 23.815 76.9502 23.6657 76.3109 23.493C75.6249 23.3063 75.0882 23.1197 74.7009 22.933C74.3135 22.7463 74.0382 22.5317 73.8749 22.289C73.7115 22.0417 73.6299 21.7407 73.6299 21.386C73.6299 20.9567 73.7512 20.581 73.9939 20.259C74.2365 19.9323 74.5725 19.6803 75.0019 19.503C75.4312 19.321 75.9305 19.23 76.4999 19.23C77.0692 19.23 77.5779 19.3233 78.0259 19.51C78.4785 19.692 78.8425 19.9487 79.1179 20.28C79.3932 20.6113 79.5565 20.9963 79.6079 21.435L78.5579 21.624C78.4879 21.1807 78.2662 20.8307 77.8929 20.574C77.5242 20.3127 77.0552 20.1773 76.4859 20.168C75.9492 20.154 75.5129 20.2567 75.1769 20.476C74.8409 20.6907 74.6729 20.9777 74.6729 21.337C74.6729 21.5377 74.7335 21.7103 74.8549 21.855C74.9762 21.995 75.1955 22.128 75.5129 22.254C75.8349 22.38 76.2922 22.5177 76.8849 22.667C77.5802 22.8443 78.1262 23.031 78.5229 23.227C78.9195 23.423 79.2019 23.654 79.3699 23.92C79.5379 24.186 79.6219 24.515 79.6219 24.907C79.6219 25.621 79.3559 26.1833 78.8239 26.594C78.2965 27 77.5685 27.203 76.6399 27.203ZM84.3103 27.21C83.5497 27.21 82.9057 27.0397 82.3783 26.699C81.851 26.3583 81.4497 25.8893 81.1743 25.292C80.9037 24.69 80.7637 23.9993 80.7543 23.22C80.7637 22.4267 80.9083 21.7313 81.1883 21.134C81.4683 20.532 81.872 20.0653 82.3993 19.734C82.9267 19.398 83.566 19.23 84.3173 19.23C85.0827 19.23 85.7477 19.4167 86.3123 19.79C86.8817 20.1633 87.2713 20.6743 87.4813 21.323L86.4733 21.645C86.296 21.1923 86.0137 20.8423 85.6263 20.595C85.2437 20.343 84.805 20.217 84.3103 20.217C83.755 20.217 83.2953 20.3453 82.9313 20.602C82.5673 20.854 82.2967 21.2063 82.1193 21.659C81.942 22.1117 81.851 22.632 81.8463 23.22C81.8557 24.1253 82.0657 24.8533 82.4763 25.404C82.887 25.95 83.4983 26.223 84.3103 26.223C84.8237 26.223 85.26 26.1063 85.6193 25.873C85.9833 25.635 86.2587 25.2897 86.4453 24.837L87.4813 25.145C87.2013 25.817 86.7907 26.3303 86.2493 26.685C85.708 27.035 85.0617 27.21 84.3103 27.21ZM91.8782 27.21C91.1269 27.21 90.4852 27.0397 89.9532 26.699C89.4212 26.3583 89.0129 25.887 88.7282 25.285C88.4435 24.683 88.3012 23.9923 88.3012 23.213C88.3012 22.4197 88.4459 21.7243 88.7352 21.127C89.0245 20.5297 89.4352 20.0653 89.9672 19.734C90.5039 19.398 91.1409 19.23 91.8782 19.23C92.6342 19.23 93.2782 19.4003 93.8102 19.741C94.3469 20.077 94.7552 20.546 95.0352 21.148C95.3199 21.7453 95.4622 22.4337 95.4622 23.213C95.4622 24.0063 95.3199 24.704 95.0352 25.306C94.7505 25.9033 94.3399 26.37 93.8032 26.706C93.2665 27.042 92.6249 27.21 91.8782 27.21ZM91.8782 26.223C92.7182 26.223 93.3435 25.9453 93.7542 25.39C94.1649 24.83 94.3702 24.1043 94.3702 23.213C94.3702 22.2983 94.1625 21.5703 93.7472 21.029C93.3365 20.4877 92.7135 20.217 91.8782 20.217C91.3135 20.217 90.8469 20.3453 90.4782 20.602C90.1142 20.854 89.8412 21.2063 89.6592 21.659C89.4819 22.107 89.3932 22.625 89.3932 23.213C89.3932 24.123 89.6032 24.8533 90.0232 25.404C90.4432 25.95 91.0615 26.223 91.8782 26.223ZM98.7769 27L96.0329 19.44H97.0759L99.3089 25.656L101.528 19.44H102.585L99.8409 27H98.7769ZM106.768 27.21C106.031 27.21 105.391 27.0467 104.85 26.72C104.313 26.3933 103.896 25.9337 103.597 25.341C103.298 24.7483 103.149 24.053 103.149 23.255C103.149 22.429 103.296 21.715 103.59 21.113C103.884 20.511 104.297 20.0467 104.829 19.72C105.366 19.3933 105.998 19.23 106.726 19.23C107.473 19.23 108.11 19.4027 108.637 19.748C109.164 20.0887 109.563 20.5787 109.834 21.218C110.105 21.8573 110.228 22.6203 110.205 23.507H109.155V23.143C109.136 22.163 108.924 21.4233 108.518 20.924C108.117 20.4247 107.529 20.175 106.754 20.175C105.942 20.175 105.319 20.4387 104.885 20.966C104.456 21.4933 104.241 22.2447 104.241 23.22C104.241 24.172 104.456 24.9117 104.885 25.439C105.319 25.9617 105.933 26.223 106.726 26.223C107.267 26.223 107.739 26.0993 108.14 25.852C108.546 25.6 108.866 25.2383 109.099 24.767L110.058 25.138C109.759 25.796 109.318 26.307 108.735 26.671C108.156 27.0303 107.501 27.21 106.768 27.21ZM103.877 23.507V22.646H109.652V23.507H103.877ZM111.758 27V19.44H112.682V21.26L112.5 21.022C112.584 20.798 112.694 20.5927 112.829 20.406C112.965 20.2147 113.112 20.0583 113.27 19.937C113.466 19.7643 113.695 19.6337 113.956 19.545C114.218 19.4517 114.481 19.398 114.747 19.384C115.013 19.3653 115.256 19.384 115.475 19.44V20.406C115.2 20.336 114.899 20.3197 114.572 20.357C114.246 20.3943 113.945 20.525 113.669 20.749C113.417 20.945 113.228 21.1807 113.102 21.456C112.976 21.7267 112.892 22.016 112.85 22.324C112.808 22.6273 112.787 22.9283 112.787 23.227V27H111.758ZM128.622 27L128.629 22.037C128.629 21.4537 128.466 20.9963 128.139 20.665C127.817 20.329 127.406 20.161 126.907 20.161C126.622 20.161 126.345 20.2263 126.074 20.357C125.803 20.4877 125.579 20.6977 125.402 20.987C125.229 21.2763 125.143 21.6543 125.143 22.121L124.534 21.946C124.52 21.4047 124.625 20.931 124.849 20.525C125.078 20.119 125.39 19.804 125.787 19.58C126.188 19.3513 126.641 19.237 127.145 19.237C127.906 19.237 128.515 19.4727 128.972 19.944C129.429 20.4107 129.658 21.043 129.658 21.841L129.651 27H128.622ZM119.599 27V19.44H120.523V21.302H120.635V27H119.599ZM124.121 27L124.128 22.107C124.128 21.505 123.967 21.0313 123.645 20.686C123.328 20.336 122.908 20.161 122.385 20.161C121.862 20.161 121.44 20.3407 121.118 20.7C120.796 21.0547 120.635 21.5283 120.635 22.121L120.019 21.785C120.019 21.2997 120.133 20.8657 120.362 20.483C120.591 20.0957 120.903 19.7923 121.3 19.573C121.697 19.349 122.147 19.237 122.651 19.237C123.132 19.237 123.559 19.3397 123.932 19.545C124.31 19.7503 124.606 20.049 124.821 20.441C125.036 20.833 125.143 21.309 125.143 21.869L125.136 27H124.121ZM134.589 27.21C133.838 27.21 133.196 27.0397 132.664 26.699C132.132 26.3583 131.724 25.887 131.439 25.285C131.154 24.683 131.012 23.9923 131.012 23.213C131.012 22.4197 131.157 21.7243 131.446 21.127C131.735 20.5297 132.146 20.0653 132.678 19.734C133.215 19.398 133.852 19.23 134.589 19.23C135.345 19.23 135.989 19.4003 136.521 19.741C137.058 20.077 137.466 20.546 137.746 21.148C138.031 21.7453 138.173 22.4337 138.173 23.213C138.173 24.0063 138.031 24.704 137.746 25.306C137.461 25.9033 137.051 26.37 136.514 26.706C135.977 27.042 135.336 27.21 134.589 27.21ZM134.589 26.223C135.429 26.223 136.054 25.9453 136.465 25.39C136.876 24.83 137.081 24.1043 137.081 23.213C137.081 22.2983 136.873 21.5703 136.458 21.029C136.047 20.4877 135.424 20.217 134.589 20.217C134.024 20.217 133.558 20.3453 133.189 20.602C132.825 20.854 132.552 21.2063 132.37 21.659C132.193 22.107 132.104 22.625 132.104 23.213C132.104 24.123 132.314 24.8533 132.734 25.404C133.154 25.95 133.772 26.223 134.589 26.223ZM139.717 27V19.44H140.641V21.26L140.459 21.022C140.543 20.798 140.653 20.5927 140.788 20.406C140.924 20.2147 141.071 20.0583 141.229 19.937C141.425 19.7643 141.654 19.6337 141.915 19.545C142.177 19.4517 142.44 19.398 142.706 19.384C142.972 19.3653 143.215 19.384 143.434 19.44V20.406C143.159 20.336 142.858 20.3197 142.531 20.357C142.205 20.3943 141.904 20.525 141.628 20.749C141.376 20.945 141.187 21.1807 141.061 21.456C140.935 21.7267 140.851 22.016 140.809 22.324C140.767 22.6273 140.746 22.9283 140.746 23.227V27H139.717ZM147.825 27.21C147.087 27.21 146.448 27.0467 145.907 26.72C145.37 26.3933 144.952 25.9337 144.654 25.341C144.355 24.7483 144.206 24.053 144.206 23.255C144.206 22.429 144.353 21.715 144.647 21.113C144.941 20.511 145.354 20.0467 145.886 19.72C146.422 19.3933 147.055 19.23 147.783 19.23C148.529 19.23 149.166 19.4027 149.694 19.748C150.221 20.0887 150.62 20.5787 150.891 21.218C151.161 21.8573 151.285 22.6203 151.262 23.507H150.212V23.143C150.193 22.163 149.981 21.4233 149.575 20.924C149.173 20.4247 148.585 20.175 147.811 20.175C146.999 20.175 146.376 20.4387 145.942 20.966C145.512 21.4933 145.298 22.2447 145.298 23.22C145.298 24.172 145.512 24.9117 145.942 25.439C146.376 25.9617 146.989 26.223 147.783 26.223C148.324 26.223 148.795 26.0993 149.197 25.852C149.603 25.6 149.922 25.2383 150.156 24.767L151.115 25.138C150.816 25.796 150.375 26.307 149.792 26.671C149.213 27.0303 148.557 27.21 147.825 27.21ZM144.934 23.507V22.646H150.709V23.507H144.934Z" fill="white"/>
</svg>
